<svg version="1.1" viewBox="0 0 615.0265957446809 663.936" xmlns="http://www.w3.org/2000/svg" style="max-height: 500px" width="615.0265957446809" height="663.936"><path fill-rule="evenodd" fill="#00656f" stroke="none" d="M 244.713 29.621 C 244.321 30.013, 244 32.733, 244 35.667 L 244 41 238.700 41 C 232.435 41, 231 42.133, 231 47.078 C 231 51.875, 232.798 53.226, 238.697 52.858 L 243.500 52.559 243.800 58.273 C 244.064 63.302, 244.378 64.057, 246.429 64.572 C 247.710 64.893, 250.050 65.009, 251.629 64.828 C 254.375 64.514, 254.513 64.251, 254.798 58.798 L 255.097 53.097 260.798 52.798 L 266.500 52.500 266.811 47.597 C 267.179 41.797, 266.369 41.037, 259.800 41.015 L 255.100 41 254.800 35.250 L 254.500 29.500 249.963 29.204 C 247.467 29.041, 245.105 29.229, 244.713 29.621 M 246.750 70.706 C 247.988 70.944, 250.012 70.944, 251.250 70.706 C 252.488 70.467, 251.475 70.272, 249 70.272 C 246.525 70.272, 245.512 70.467, 246.750 70.706 M 156.852 96.016 C 154.846 97.075, 151.637 99.774, 149.721 102.013 C 138.579 115.029, 144.952 134.689, 161.921 139.655 C 168.889 141.694, 176.198 140.259, 182.197 135.673 C 188.313 130.997, 191 125.235, 191 116.793 C 191 106.931, 187.036 100.150, 178.790 95.908 C 173.669 93.274, 161.932 93.332, 156.852 96.016 M 108 194.980 C 104.425 195.351, 125.800 195.645, 155.500 195.634 C 185.200 195.622, 205 195.357, 199.500 195.044 C 185.151 194.228, 115.710 194.179, 108 194.980 M 261.304 234.747 C 267.247 234.924, 276.697 234.923, 282.304 234.745 C 287.912 234.567, 283.050 234.422, 271.500 234.423 C 259.950 234.424, 255.362 234.570, 261.304 234.747 M 35.250 235.716 C 36.763 235.945, 39.237 235.945, 40.750 235.716 C 42.263 235.487, 41.025 235.300, 38 235.300 C 34.975 235.300, 33.737 235.487, 35.250 235.716 M 33.866 256.250 C 33.792 256.938, 33.832 259.413, 33.956 261.750 L 34.180 266 29.290 266 C 23.735 266, 22 267.218, 22 271.118 C 22 276.292, 22.802 277, 28.657 277 L 34.100 277 33.800 281.712 L 33.500 286.424 37.481 287.092 C 43.248 288.060, 44 287.466, 44 281.945 L 44 277.105 49.250 276.802 L 54.500 276.500 54.815 272.680 C 55.241 267.496, 53.641 265.831, 48.587 266.201 L 44.500 266.500 44.200 260.750 L 43.900 255 38.950 255 C 35.728 255, 33.953 255.436, 33.866 256.250 M 35.768 294.725 C 37.565 294.947, 40.265 294.943, 41.768 294.715 C 43.271 294.486, 41.800 294.304, 38.500 294.310 C 35.200 294.315, 33.971 294.502, 35.768 294.725 M 126.500 308.393 C 122.181 310.286, 115.330 318.148, 114.081 322.645 C 111.348 332.491, 113.719 340.764, 121.258 347.687 C 136.397 361.587, 160 350.816, 160 330.008 C 160 320.426, 155.693 312.925, 147.914 308.956 C 143.358 306.632, 131.245 306.313, 126.500 308.393 M 33.112 353.060 C 30.698 353.545, 28.599 354.068, 28.447 354.221 C 28.294 354.375, 32.830 354.500, 38.527 354.500 C 48.574 354.500, 49.704 353.822, 41.500 352.716 C 39.300 352.419, 35.525 352.574, 33.112 353.060 M 34 378.557 L 34 384 29.122 384 C 23.260 384, 21.755 385.449, 22.185 390.680 L 22.500 394.500 28.304 394.802 L 34.107 395.103 33.453 399.463 C 32.883 403.263, 33.075 403.970, 34.946 404.971 C 36.127 405.603, 38.534 405.980, 40.296 405.810 C 43.406 405.509, 43.509 405.347, 43.801 400.301 L 44.101 395.101 49.301 394.801 L 54.500 394.500 54.815 390.680 C 55.234 385.585, 53.707 384, 48.378 384 L 44 384 44 378.596 L 44 373.192 39 373.153 L 34 373.115 34 378.557 M 246 408 C 243.525 408.385, 252.975 408.736, 267 408.780 C 282.028 408.827, 291.679 408.506, 290.500 408 C 288.141 406.986, 252.521 406.986, 246 408 M 120 447.031 C 130.013 447.976, 175.323 447.993, 186 447.056 C 191.163 446.603, 178.402 446.312, 153.500 446.317 C 130.950 446.320, 115.875 446.642, 120 447.031 M 155.992 524.250 C 142.012 532.633, 140.077 550.251, 151.919 561.327 C 161.153 569.964, 174.179 570.350, 183.143 562.252 C 189.489 556.519, 191.262 552.095, 190.849 543.023 C 190.413 533.436, 187.519 528.485, 179.749 524.029 C 175.388 521.528, 173.393 521.017, 167.956 521.009 C 162.342 521.001, 160.641 521.462, 155.992 524.250 M 245.750 594.689 C 244.332 595.060, 244 596.270, 244 601.073 L 244 607 238.107 607 C 231.860 607, 231 607.666, 231 612.500 C 231 617.334, 231.860 618, 238.107 618 L 244 618 244 623.895 L 244 629.790 248.250 630.229 C 254.597 630.885, 255 630.509, 255 623.943 L 255 618.100 260.750 617.800 L 266.500 617.500 266.500 612.500 L 266.500 607.500 260.750 607.200 L 255 606.900 255 601.650 C 255 598.763, 254.460 595.860, 253.800 595.200 C 252.616 594.016, 249.164 593.797, 245.750 594.689"/><path fill-rule="evenodd" fill="#061213" stroke="none" d="M 242.742 12.392 C 243.057 12.901, 242.112 12.994, 240.565 12.606 C 238.558 12.102, 238.031 12.241, 238.580 13.130 C 239.100 13.970, 238.802 14.138, 237.606 13.679 C 233.342 12.043, 221.814 21.109, 217.267 29.674 C 209.217 44.838, 211.885 62.071, 224.044 73.444 C 231.575 80.489, 238.686 83.400, 248.500 83.455 C 257.745 83.507, 263.765 81.589, 270.507 76.443 L 274.888 73.099 292.444 83.278 L 310 93.456 310 330.020 L 310 566.584 292.257 576.746 L 274.513 586.908 272.007 584.564 C 268.777 581.544, 261.215 577.749, 259.966 578.521 C 259.435 578.849, 259 578.653, 259 578.084 C 259 577.469, 257.682 577.277, 255.750 577.609 C 253.275 578.035, 252.858 577.914, 254 577.100 C 255.129 576.295, 253.940 576.027, 249.191 576.015 C 244.701 576.004, 243.086 576.330, 243.590 577.146 C 244.089 577.952, 243.514 578.095, 241.649 577.627 C 240.011 577.216, 239 577.373, 239 578.040 C 239 578.633, 238.567 578.850, 238.037 578.523 C 236.466 577.552, 227.811 582.515, 223.411 586.909 C 205.453 604.844, 210.779 635.037, 233.804 645.830 C 238.730 648.139, 240.785 648.499, 249 648.492 C 260.801 648.483, 265.731 646.377, 274.588 637.560 C 282.731 629.453, 285.271 622.929, 284.864 611.158 L 284.575 602.799 299.038 594.569 C 306.992 590.043, 316.875 584.330, 321 581.875 L 328.500 577.410 328.752 330.194 L 329.004 82.978 323.480 79.444 C 320.441 77.500, 317.446 76.225, 316.823 76.609 C 316.200 76.994, 315.948 76.893, 316.262 76.385 C 316.576 75.877, 309.620 71.333, 300.804 66.288 L 284.775 57.116 284.637 47.308 C 284.471 35.392, 281.994 29.152, 274.428 21.586 C 269.010 16.168, 259.974 11.556, 256.769 12.573 C 255.461 12.988, 254.983 12.837, 255.411 12.144 C 255.861 11.415, 253.855 11.140, 249.130 11.283 C 245.311 11.399, 242.437 11.898, 242.742 12.392 M 239.500 25.866 C 233.979 28.380, 228.263 34.962, 227.493 39.690 C 227.152 41.786, 226.468 44.496, 225.974 45.714 C 225.422 47.076, 225.446 48.158, 226.038 48.523 C 226.567 48.850, 227 50.289, 227 51.721 C 227 57.902, 237.403 69, 243.196 69 C 244.188 69, 245 69.450, 245 70 C 245 70.550, 246.800 71, 249 71 C 251.200 71, 253 70.606, 253 70.125 C 253 69.644, 254.238 69.001, 255.750 68.697 C 259.997 67.844, 265.155 63.900, 268.460 58.978 C 270.864 55.399, 271.533 53.212, 271.818 48.004 C 272.125 42.377, 271.784 40.758, 269.293 36 C 265.265 28.307, 258.148 23.991, 249.544 24.022 C 245.871 24.035, 241.931 24.758, 239.500 25.866 M 79.690 216.585 L 57.012 239.170 52.583 237.479 C 50.147 236.548, 47.600 236.129, 46.922 236.548 C 46.245 236.967, 45.946 236.896, 46.259 236.390 C 46.587 235.860, 43.312 235.478, 38.511 235.486 C 33.834 235.494, 30.699 235.864, 31.348 236.331 C 32.003 236.803, 31.313 236.903, 29.750 236.562 C 28.080 236.197, 27 236.385, 27 237.040 C 27 237.633, 26.565 237.849, 26.034 237.521 C 24.368 236.491, 17.045 240.918, 12.405 245.760 C 9.956 248.316, 6.738 252.903, 5.254 255.954 C 2.903 260.787, 2.556 262.721, 2.553 271 C 2.551 279.510, 2.855 281.107, 5.475 286.328 C 9.344 294.035, 18.136 302.159, 25.651 304.971 C 33.364 307.856, 43.636 307.856, 51.349 304.971 C 59.363 301.972, 67.858 293.908, 71.561 285.782 C 75.420 277.316, 75.701 265.120, 72.212 257.544 L 69.930 252.588 89.706 232.794 L 109.481 213 155.539 213 L 201.597 213 221.048 232.474 L 240.500 251.948 265.689 252.071 C 279.543 252.138, 291.356 251.898, 291.939 251.538 C 292.543 251.165, 293 247.460, 293 242.941 L 293 235 271.750 234.781 L 250.500 234.563 271 234 L 291.500 233.437 270.032 233.219 L 248.564 233 228.975 213.500 L 209.386 194 199.443 194.194 L 189.500 194.387 199.500 195 C 205 195.337, 185.200 195.622, 155.500 195.634 C 125.800 195.645, 104.425 195.360, 108 195 L 114.500 194.345 108.434 194.173 L 102.367 194 79.690 216.585 M 31.634 248.971 C 14.805 254.362, 10.261 277.732, 23.840 289.055 C 25.853 290.733, 28.738 292.364, 30.250 292.678 C 31.762 292.993, 33 293.644, 33 294.125 C 33 294.606, 35.475 295, 38.500 295 C 41.883 295, 44 294.570, 44 293.883 C 44 293.259, 44.882 292.997, 46.001 293.290 C 47.102 293.578, 47.751 293.405, 47.442 292.907 C 47.134 292.408, 47.402 292, 48.037 292 C 50.297 292, 55.282 287.625, 58.119 283.151 C 60.596 279.246, 60.999 277.619, 60.991 271.554 C 60.978 262.443, 57.332 255.451, 50.506 251.451 C 45.556 248.550, 36.616 247.375, 31.634 248.971 M 30.738 354.385 C 31.058 354.903, 30.127 354.998, 28.565 354.606 C 26.558 354.102, 26.031 354.241, 26.580 355.130 C 27.094 355.962, 26.808 356.140, 25.664 355.701 C 24.749 355.350, 24 355.525, 24 356.090 C 24 356.656, 23.609 356.877, 23.132 356.581 C 22.654 356.286, 19.764 357.834, 16.709 360.022 C -1.725 373.222, -2.817 400, 14.436 415.768 C 22.310 422.964, 28.983 425.315, 40 424.775 C 46.064 424.478, 49.668 423.753, 52.576 422.247 L 56.653 420.136 79.068 442.568 L 101.483 465 155.982 465 L 210.481 465 229.576 445.924 L 248.670 426.849 269.441 426.959 C 283.843 427.035, 290.640 426.714, 291.606 425.912 C 292.582 425.102, 293 422.393, 293 416.878 L 293 409 267.250 408.850 C 253.088 408.767, 243.525 408.385, 246 408 L 250.500 407.300 246.009 407.150 L 241.518 407 222.009 426.414 C 202.769 445.561, 202.431 445.837, 197.500 446.422 C 186.793 447.693, 133.243 448.211, 121.200 447.161 L 108.900 446.088 89.398 426.789 L 69.895 407.491 71.953 402.839 C 78.839 387.272, 73.248 368.673, 58.776 359.009 C 55.408 356.760, 52.055 355.149, 51.326 355.428 C 50.597 355.708, 50 355.475, 50 354.910 C 50 354.344, 49.663 354.086, 49.250 354.335 C 48.837 354.585, 44.377 354.494, 39.339 354.133 C 33.933 353.747, 30.407 353.850, 30.738 354.385 M 30.886 367.560 C 25.974 369.073, 18.790 375.792, 16.972 380.573 C 15.238 385.134, 15.814 394.984, 18.090 399.685 C 20.488 404.639, 26.240 409.845, 30.234 410.675 C 31.737 410.988, 32.793 411.526, 32.579 411.872 C 32.366 412.217, 35.030 412.500, 38.500 412.500 C 41.970 412.500, 44.574 412.119, 44.286 411.654 C 43.998 411.188, 44.604 410.972, 45.632 411.172 C 46.659 411.373, 48.175 410.997, 49 410.338 C 55.534 405.115, 57.095 403.435, 58.922 399.661 C 61.535 394.263, 61.734 384.350, 59.331 379.285 C 56.917 374.199, 51.514 369.363, 46.235 367.564 C 40.698 365.678, 37.001 365.677, 30.886 367.560 M 243.358 589.899 C 231.433 592.951, 224.355 605.230, 227.111 618.083 C 229.393 628.723, 237.639 635.019, 249.239 634.978 C 259.302 634.943, 265.214 631.376, 269.895 622.515 C 273.841 615.045, 271.888 602.804, 265.688 596.153 C 260.763 590.868, 250.644 588.035, 243.358 589.899 M 330 700.871 C 321.516 702.741, 316.004 707.880, 313.525 716.229 C 312.245 720.538, 312 729.608, 312 772.682 L 312 824 326 824 L 340 824 340 804 L 340 784 348.500 784 L 357 784 357 804.028 L 357 824.056 370.750 823.778 L 384.500 823.500 384.500 771 C 384.500 723.193, 384.342 718.091, 382.732 713.920 C 381.760 711.401, 379.735 708.163, 378.232 706.723 C 372.938 701.652, 368.944 700.743, 350.500 700.408 C 341.150 700.238, 331.925 700.446, 330 700.871 M 92.682 702.651 C 92.307 703.026, 92 730.483, 92 763.667 L 92 824 105.481 824 L 118.962 824 119.582 821.528 C 119.924 820.168, 120.045 809.593, 119.851 798.027 L 119.500 776.999 132.783 777 L 146.066 777 145.783 765.750 L 145.500 754.500 132.829 754.221 L 120.158 753.941 119.802 740.721 C 119.607 733.449, 119.598 727.163, 119.783 726.750 C 119.967 726.337, 126.406 726, 134.091 726 L 148.063 726 147.782 714.250 L 147.500 702.500 120.432 702.234 C 105.545 702.088, 93.058 702.276, 92.682 702.651 M 161.581 704.221 C 161.322 705.475, 161.198 732.825, 161.305 765 L 161.500 823.500 189.500 823.500 L 217.500 823.500 217.500 812.500 L 217.500 801.500 203.259 801.223 L 189.019 800.945 188.759 751.723 L 188.500 702.500 175.276 702.221 C 162.216 701.946, 162.047 701.971, 161.581 704.221 M 402.470 703.221 C 402.201 703.924, 402.098 731.275, 402.241 764 L 402.500 823.500 430.500 823.500 L 458.500 823.500 458.500 812.500 L 458.500 801.500 444.259 801.223 L 430.019 800.945 429.759 751.723 L 429.500 702.500 416.230 702.221 C 406.167 702.009, 402.841 702.251, 402.470 703.221 M 469.423 703.341 C 469.127 704.111, 469.024 731.462, 469.193 764.120 L 469.500 823.500 497.500 823.500 L 525.500 823.500 525.500 812.500 L 525.500 801.500 511.259 801.223 L 497.019 800.945 496.759 751.723 L 496.500 702.500 483.230 702.221 C 472.590 701.997, 469.853 702.219, 469.423 703.341 M 340.705 720.628 C 340.317 721.016, 340 730.483, 340 741.667 L 340 762 348.520 762 L 357.041 762 356.770 741.250 L 356.500 720.500 348.955 720.212 C 344.805 720.053, 341.093 720.241, 340.705 720.628 M 229.477 760.236 C 229.165 761.481, 229.043 766.325, 229.205 771 L 229.500 779.500 262 779.500 L 294.500 779.500 294.500 769 L 294.500 758.500 262.273 758.236 L 230.045 757.972 229.477 760.236"/><path fill-rule="evenodd" fill="#0cb6a0" stroke="none" d="M 400.500 49.083 C 398.850 50.148, 385.688 57.858, 371.250 66.217 L 345 81.414 345 214.625 C 345 287.891, 344.728 348.544, 344.396 349.410 C 342.879 353.365, 347.651 351.694, 362.179 343.185 C 381.766 331.712, 407.830 316.650, 410.788 315.093 L 413.077 313.889 412.788 322.999 L 412.500 332.110 379 351.339 L 345.500 370.569 345 473.608 C 344.725 530.280, 344.625 577.289, 344.778 578.074 C 344.931 578.858, 346.956 580.574, 349.278 581.886 C 351.600 583.198, 364.616 590.735, 378.201 598.636 C 391.787 606.536, 403.396 613, 404 613 C 404.604 613, 416.438 606.408, 430.299 598.352 C 444.159 590.296, 458.538 581.951, 462.250 579.808 L 469 575.912 469 534.026 L 469 492.140 476.373 488.070 C 480.428 485.832, 483.916 484, 484.123 484 C 484.330 483.999, 484.377 502.079, 484.227 524.177 C 484.068 547.699, 484.336 564.736, 484.875 565.275 C 485.435 565.835, 496.597 560.015, 513.397 550.405 L 541 534.616 540.972 496.558 L 540.944 458.500 509.722 440.603 C 492.550 430.759, 478.172 422.659, 477.772 422.603 C 477.372 422.546, 462.634 430.805, 445.022 440.956 L 413 459.412 413 500.077 L 413 540.741 405.868 544.871 C 401.945 547.142, 398.345 549, 397.868 549 C 397.389 549, 397 527.023, 397 500.014 L 397 451.028 400.750 448.626 C 403.359 446.955, 523.268 377.688, 543.250 366.309 C 543.663 366.074, 544 369.917, 544 374.849 L 544 383.816 519.750 397.793 C 506.413 405.480, 495.383 412.384, 495.241 413.135 C 495.092 413.918, 498.076 416.268, 502.241 418.649 C 506.233 420.931, 517.825 427.621, 528 433.516 C 538.175 439.410, 546.950 444.256, 547.500 444.283 C 548.050 444.311, 562.788 436.056, 580.250 425.940 L 612 407.546 612 371.841 L 612 336.136 609.250 334.226 C 607.737 333.175, 591.763 323.877, 573.750 313.563 L 541 294.810 541 285.846 C 541 280.916, 541.337 277.078, 541.750 277.318 C 542.163 277.558, 557.125 286.175, 575 296.468 C 592.875 306.761, 607.928 315.591, 608.450 316.091 C 608.972 316.591, 609.985 317, 610.700 317 C 611.739 317, 612 310.682, 612 285.514 L 612 254.028 608.250 251.646 C 602.369 247.910, 548.285 217, 547.629 217 C 546.676 217, 487.663 251.129, 485.761 252.780 C 484.172 254.160, 484 257.726, 483.761 294.135 L 483.500 333.981 476.250 329.802 L 469 325.622 469 289.966 C 469 257.256, 468.855 254.184, 467.250 252.783 C 466.288 251.943, 452 243.506, 435.500 234.034 C 419 224.562, 403.587 215.711, 401.250 214.364 L 397 211.916 397 168.958 C 397 145.331, 397.187 126, 397.415 126 C 397.643 126, 401.131 127.949, 405.165 130.332 L 412.500 134.664 412.763 168.766 L 413.026 202.868 444.263 221.075 C 461.443 231.089, 475.950 239.287, 476.500 239.294 C 477.050 239.300, 490.325 231.872, 506 222.787 C 521.675 213.702, 535.962 205.522, 537.750 204.609 L 541 202.949 541 163.987 L 541 125.025 537.250 122.676 C 523.584 114.114, 485.771 93.024, 484.972 93.517 C 484.373 93.888, 484 107.518, 484 129.059 C 484 148.277, 483.814 164, 483.587 164 C 483.359 164, 480.097 162.255, 476.337 160.121 L 469.500 156.243 469.238 119.690 L 468.975 83.136 454.738 74.917 C 446.907 70.396, 432.896 62.266, 423.602 56.849 C 414.309 51.432, 405.984 47.033, 405.102 47.073 C 404.221 47.113, 402.150 48.018, 400.500 49.083 M 159.089 81.085 C 149.739 82.920, 140.205 90.754, 134.851 101 C 132.798 104.929, 132.500 106.895, 132.500 116.500 C 132.500 126.143, 132.791 128.046, 134.860 131.927 C 138.325 138.425, 146.536 146.626, 152.495 149.541 C 170.032 158.121, 193.348 149.485, 201.121 131.529 L 203.500 126.034 217.010 126.017 L 230.520 126 249.510 145.022 L 268.500 164.045 280.500 163.772 L 292.500 163.500 292.500 154.500 L 292.500 145.500 283.656 145 L 274.812 144.500 256.438 125.750 L 238.064 107 220.640 107 C 203.305 107, 203.214 106.988, 202.641 104.705 C 202.324 103.443, 200.317 99.706, 198.181 96.401 C 190.023 83.780, 175.116 77.939, 159.089 81.085 M 156.852 96.016 C 154.846 97.075, 151.637 99.774, 149.721 102.013 C 138.579 115.029, 144.952 134.689, 161.921 139.655 C 168.889 141.694, 176.198 140.259, 182.197 135.673 C 188.313 130.997, 191 125.235, 191 116.793 C 191 106.931, 187.036 100.150, 178.790 95.908 C 173.669 93.274, 161.932 93.332, 156.852 96.016 M 124.882 295.325 C 115.738 298.734, 107.550 306.461, 103.160 315.825 C 100.922 320.600, 100.505 322.848, 100.529 330 C 100.553 337.053, 101.009 339.474, 103.209 344.218 C 106.701 351.750, 113.576 358.955, 120.722 362.574 C 126.018 365.256, 127.376 365.500, 137 365.500 C 146.586 365.500, 147.966 365.254, 152.856 362.680 C 159.650 359.102, 166.653 351.932, 169.637 345.500 L 171.956 340.500 232.228 340 L 292.500 339.500 292.792 331.153 C 292.977 325.859, 292.658 322.293, 291.920 321.403 C 290.944 320.228, 281.131 320, 231.495 320 L 172.235 320 169.560 314.532 C 166.137 307.537, 159.661 300.888, 152.856 297.382 C 148.331 295.051, 146.026 294.572, 138 294.299 C 131.739 294.086, 127.267 294.436, 124.882 295.325 M 126.500 308.393 C 122.181 310.286, 115.330 318.148, 114.081 322.645 C 111.348 332.491, 113.719 340.764, 121.258 347.687 C 136.397 361.587, 160 350.816, 160 330.008 C 160 320.426, 155.693 312.925, 147.914 308.956 C 143.358 306.632, 131.245 306.313, 126.500 308.393 M 279.459 495.781 L 268.419 496.062 249.469 515.031 L 230.520 534 217.010 533.983 L 203.500 533.966 201.032 528.233 C 197.996 521.179, 191.388 514.521, 183.434 510.500 C 178.055 507.781, 176.611 507.504, 168 507.538 C 159.307 507.573, 157.973 507.849, 152.293 510.781 C 143.804 515.164, 139.913 518.828, 135.908 526.215 C 132.618 532.282, 132.500 532.881, 132.500 543.500 C 132.500 553.787, 132.689 554.842, 135.422 559.774 C 139.221 566.631, 146.614 573.473, 153.782 576.768 C 158.487 578.930, 161.010 579.405, 168.020 579.448 C 175.681 579.495, 177.211 579.170, 183.192 576.226 C 191.028 572.368, 198.964 564.280, 201.547 557.517 L 203.272 553 220.445 553 L 237.618 553 256.490 534.036 L 275.363 515.073 283.931 514.786 L 292.500 514.500 292.787 505.903 C 292.992 499.756, 292.707 497.048, 291.787 496.403 C 291.079 495.906, 285.532 495.626, 279.459 495.781 M 155.992 524.250 C 142.012 532.633, 140.077 550.251, 151.919 561.327 C 161.153 569.964, 174.179 570.350, 183.143 562.252 C 189.489 556.519, 191.262 552.095, 190.849 543.023 C 190.413 533.436, 187.519 528.485, 179.749 524.029 C 175.388 521.528, 173.393 521.017, 167.956 521.009 C 162.342 521.001, 160.641 521.462, 155.992 524.250"/></svg>