<?xml version="1.0" standalone="no"?>
<!DOCTYPE svg PUBLIC "-//W3C//DTD SVG 20010904//EN"
 "http://www.w3.org/TR/2001/REC-SVG-20010904/DTD/svg10.dtd">
<svg version="1.0" xmlns="http://www.w3.org/2000/svg"
 width="701.000000pt" height="932.000000pt" viewBox="0 0 701.000000 932.000000"
 preserveAspectRatio="xMidYMid meet">

<g transform="translate(0.000000,932.000000) scale(0.100000,-0.100000)"
fill="#000000" stroke="none">
<path d="M2815 8976 c-100 -32 -165 -87 -213 -184 -34 -69 -37 -83 -37 -156 1
-105 35 -184 109 -254 80 -75 133 -96 241 -97 78 0 98 4 150 28 33 16 71 39
85 52 l25 24 170 -99 c94 -54 176 -103 183 -110 9 -8 12 -495 12 -2368 0
-1296 -4 -2362 -8 -2369 -4 -6 -86 -56 -182 -112 l-175 -100 -25 24 c-45 43
-125 76 -200 82 -189 16 -362 -124 -385 -312 -18 -142 63 -292 196 -362 49
-26 63 -28 159 -28 98 0 109 2 158 30 73 40 145 121 172 193 20 52 30 167 18
210 -2 8 39 38 102 74 58 33 158 92 223 130 l117 69 -2 2471 -3 2471 -220 128
c-137 79 -219 132 -217 141 2 7 4 45 4 84 0 199 -154 354 -352 353 -36 0 -83
-6 -105 -13z m187 -112 c51 -17 108 -67 135 -117 24 -45 24 -160 -1 -207 -57
-109 -166 -159 -277 -126 -110 32 -171 115 -170 231 0 39 7 77 17 97 56 112
178 163 296 122z m16 -5660 c88 -36 136 -115 136 -219 0 -143 -91 -235 -235
-235 -79 0 -148 35 -192 100 -30 42 -32 50 -32 136 0 84 2 94 30 133 44 64
115 101 193 101 34 0 79 -7 100 -16z"/>
<path d="M2878 8743 l-3 -58 -62 -3 -63 -3 0 -39 0 -39 63 -3 62 -3 3 -57 3
-58 44 0 44 0 3 58 3 57 58 3 57 3 0 39 0 40 -60 0 -60 0 0 60 0 60 -45 0 -44
0 -3 -57z"/>
<path d="M2880 3090 l0 -59 -62 -3 -63 -3 0 -40 0 -40 60 -5 60 -5 3 -57 3
-58 44 0 45 0 0 60 0 60 60 0 60 0 0 45 0 45 -60 0 -60 0 0 60 0 60 -45 0 -45
0 0 -60z"/>
<path d="M2022 8165 c-120 -52 -177 -173 -140 -299 8 -26 31 -60 63 -92 64
-65 132 -85 219 -65 219 49 248 359 42 452 -49 22 -137 24 -184 4z"/>
<path d="M1229 6934 l-226 -226 -59 22 c-79 29 -179 30 -256 0 -76 -28 -159
-104 -195 -178 -25 -50 -28 -68 -28 -152 0 -82 4 -103 26 -150 87 -182 307
-258 486 -166 147 74 224 253 178 412 -9 32 -22 65 -28 72 -8 10 35 58 189
213 l199 199 470 0 470 0 195 -195 195 -195 250 2 250 3 0 85 0 85 -215 3
-216 2 -194 195 -195 195 -535 0 -535 0 -226 -226z m-277 -342 c69 -47 102
-119 96 -211 -3 -58 -9 -78 -34 -113 -63 -90 -164 -127 -268 -98 -169 47 -224
277 -95 396 59 55 86 65 174 62 72 -3 85 -6 127 -36z"/>
<path d="M778 6493 l-3 -58 -58 -3 -58 -3 3 -37 3 -37 55 -5 55 -5 3 -47 3
-48 39 0 39 0 3 48 3 47 50 5 c49 5 50 5 53 42 l3 37 -53 3 -53 3 -3 58 -3 57
-39 0 -39 0 -3 -57z"/>
<path d="M1715 6038 c-89 -32 -155 -129 -155 -230 0 -203 236 -313 390 -181
57 49 80 101 80 186 0 103 -52 183 -144 221 -43 18 -126 20 -171 4z"/>
<path d="M751 5569 c-104 -17 -207 -94 -259 -194 -24 -44 -27 -61 -27 -150 0
-88 3 -106 27 -155 37 -75 100 -137 177 -173 55 -26 75 -30 140 -30 52 1 94 8
135 23 l58 22 227 -226 226 -226 535 0 535 0 195 195 194 195 216 2 215 3 0
85 0 85 -249 3 -250 2 -196 -195 -196 -195 -469 0 -470 0 -198 198 -198 198
22 49 c12 27 24 79 27 116 16 227 -186 405 -417 368z m164 -138 c50 -22 109
-86 125 -136 7 -20 10 -65 8 -101 -3 -50 -10 -72 -34 -106 -44 -63 -99 -98
-167 -105 -149 -15 -267 87 -267 232 0 96 51 177 135 216 53 24 147 25 200 0z"/>
<path d="M778 5313 l-3 -58 -58 -3 -58 -3 3 -37 3 -37 55 -5 55 -5 3 -47 3
-48 39 0 39 0 3 48 3 47 50 5 c49 5 50 5 53 42 l3 37 -53 3 -53 3 -3 58 -3 57
-39 0 -39 0 -3 -57z"/>
<path d="M2050 3901 c-158 -52 -227 -223 -144 -358 46 -73 100 -107 184 -111
88 -5 133 10 186 64 116 115 86 311 -60 386 -43 22 -128 32 -166 19z"/>
<path d="M3730 2091 c-79 -17 -134 -65 -155 -135 -12 -41 -15 -140 -15 -568
l0 -518 130 0 130 0 0 205 0 205 95 0 95 0 0 -205 0 -206 128 3 127 3 3 500
c1 327 -1 518 -8 552 -15 68 -46 112 -100 143 -43 23 -54 25 -220 27 -96 1
-191 -2 -210 -6z m268 -183 c9 -9 12 -72 12 -220 l0 -208 -95 0 -95 0 0 208
c0 148 3 211 12 220 7 7 41 12 83 12 42 0 76 -5 83 -12z"/>
<path d="M1360 1475 l0 -606 128 3 127 3 3 238 2 237 130 0 130 0 0 105 0 105
-130 0 -130 0 0 145 0 145 140 0 140 0 0 115 0 115 -270 0 -270 0 0 -605z"/>
<path d="M2052 1478 l3 -603 270 0 270 0 3 107 3 107 -143 3 -143 3 -3 493 -2
492 -130 0 -130 0 2 -602z"/>
<path d="M4462 1478 l3 -603 270 0 270 0 3 107 3 107 -143 3 -143 3 -3 493 -2
492 -130 0 -130 0 2 -602z"/>
<path d="M5132 1478 l3 -603 270 0 270 0 3 107 3 107 -143 3 -143 3 -3 493 -2
492 -130 0 -130 0 2 -602z"/>
<path d="M2737 1513 c-4 -3 -7 -48 -7 -100 l0 -93 320 0 321 0 -3 98 -3 97
-311 3 c-171 1 -313 -1 -317 -5z"/>
<path d="M1390 550 c0 -15 -7 -20 -25 -20 -24 0 -45 -25 -45 -54 0 -26 29 -46
63 -42 l32 3 3 67 c2 54 0 66 -13 66 -8 0 -15 -9 -15 -20z m-2 -67 c-2 -17 -9
-28 -18 -28 -9 0 -16 11 -18 28 -3 22 1 27 18 27 17 0 21 -5 18 -27z"/>
<path d="M1980 550 c0 -15 -7 -20 -29 -20 -30 0 -41 -14 -41 -55 0 -30 17 -42
58 -42 l32 0 0 69 c0 39 -4 68 -10 68 -5 0 -10 -9 -10 -20z m-4 -55 c4 -8 0
-22 -7 -31 -11 -13 -14 -13 -27 0 -17 17 -9 46 13 46 9 0 18 -7 21 -15z"/>
<path d="M2580 561 c0 -6 5 -13 10 -16 6 -3 10 1 10 9 0 9 -4 16 -10 16 -5 0
-10 -4 -10 -9z"/>
<path d="M2892 561 c4 -13 18 -16 19 -4 0 4 -5 9 -11 12 -7 2 -11 -2 -8 -8z"/>
<path d="M4160 499 c0 -52 3 -69 13 -66 6 2 11 10 9 18 -6 23 8 59 23 59 9 0
15 -13 17 -37 3 -42 21 -51 26 -14 7 47 -6 71 -38 71 -23 0 -30 4 -30 20 0 11
-4 20 -10 20 -6 0 -10 -30 -10 -71z"/>
<path d="M4390 502 l0 -68 35 -1 c42 -1 57 16 53 59 -3 29 -7 33 -35 36 -25 2
-33 8 -33 23 0 10 -4 19 -10 19 -6 0 -10 -29 -10 -68z m68 -16 c2 -10 -1 -23
-8 -30 -14 -14 -41 19 -33 40 8 20 37 13 41 -10z"/>
<path d="M4510 506 c0 -63 12 -88 32 -68 6 6 6 12 -1 16 -6 4 -11 32 -11 62 0
30 -4 54 -10 54 -6 0 -10 -28 -10 -64z"/>
<path d="M4832 559 c2 -6 8 -10 13 -10 5 0 11 4 13 10 2 6 -4 11 -13 11 -9 0
-15 -5 -13 -11z"/>
<path d="M5350 506 c0 -65 16 -98 27 -56 l6 23 18 -24 c23 -30 37 -18 16 14
-14 22 -14 27 -1 46 19 26 -2 30 -22 4 -12 -16 -13 -14 -14 20 0 26 -4 37 -15
37 -12 0 -15 -14 -15 -64z"/>
<path d="M5725 561 c-6 -11 9 -23 19 -14 9 9 7 23 -3 23 -6 0 -12 -4 -16 -9z"/>
<path d="M1120 495 c0 -64 16 -91 22 -37 2 21 9 28 31 30 33 4 26 22 -9 22
-15 0 -24 6 -24 15 0 10 10 15 30 15 17 0 30 5 30 10 0 6 -18 10 -40 10 l-40
0 0 -65z"/>
<path d="M2080 495 l0 -65 41 0 c28 0 39 4 37 12 -3 7 -15 13 -29 13 -22 0
-24 5 -27 53 -4 75 -22 65 -22 -13z"/>
<path d="M3111 498 c-21 -63 -20 -87 3 -55 7 9 23 17 36 17 13 0 29 -8 36 -17
23 -32 24 -8 3 55 -28 84 -50 84 -78 0z m49 1 c0 -12 -5 -19 -11 -17 -6 2 -10
7 -10 11 1 4 1 14 1 23 0 8 5 12 10 9 6 -3 10 -15 10 -26z"/>
<path d="M3670 495 l0 -65 40 0 c30 0 40 4 40 16 0 8 -5 12 -10 9 -6 -3 -19
-3 -30 0 -16 5 -20 15 -20 56 0 27 -4 49 -10 49 -6 0 -10 -28 -10 -65z"/>
<path d="M5030 494 l0 -65 43 3 c43 3 55 22 14 23 -20 0 -22 6 -25 53 -2 37
-7 52 -18 52 -11 0 -14 -15 -14 -66z"/>
<path d="M1727 536 c-7 -17 8 -85 22 -99 5 -5 18 -7 28 -3 17 7 17 8 1 17 -10
6 -18 19 -18 31 0 11 8 27 18 34 16 13 16 13 0 14 -10 0 -18 5 -18 10 0 15
-27 12 -33 -4z"/>
<path d="M3437 536 c-7 -17 8 -85 22 -99 5 -5 18 -7 28 -3 17 7 17 8 1 17 -10
6 -18 19 -18 31 0 11 8 27 18 34 16 13 16 13 0 14 -10 0 -18 5 -18 10 0 15
-27 12 -33 -4z"/>
<path d="M4753 535 c-8 -9 -9 -16 -3 -20 6 -3 10 -19 10 -34 0 -29 16 -51 37
-51 7 0 13 7 13 15 0 8 -6 14 -12 13 -8 -2 -14 9 -16 25 -2 19 1 27 12 27 21
0 20 10 -1 26 -22 17 -25 17 -40 -1z"/>
<path d="M2785 533 c-32 -8 -39 -20 -40 -78 -2 -51 0 -56 23 -62 31 -7 57 8
57 33 0 13 -8 20 -27 22 -34 4 -37 19 -5 24 17 2 22 10 24 36 1 17 -2 31 -5
31 -4 -1 -16 -3 -27 -6z m10 -43 c-5 -8 -11 -8 -17 -2 -6 6 -7 16 -3 22 5 8
11 8 17 2 6 -6 7 -16 3 -22z m5 -70 c0 -5 -9 -10 -20 -10 -11 0 -20 5 -20 10
0 6 9 10 20 10 11 0 20 -4 20 -10z"/>
<path d="M1233 523 c-7 -2 -13 -20 -13 -38 0 -38 27 -60 60 -50 29 9 24 24 -6
22 -15 -1 -29 4 -31 11 -3 8 5 12 25 12 36 0 44 8 31 31 -9 18 -39 23 -66 12z
m47 -23 c0 -5 -9 -10 -20 -10 -11 0 -20 5 -20 10 0 6 9 10 20 10 11 0 20 -4
20 -10z"/>
<path d="M1452 518 c-28 -28 -3 -88 37 -88 10 0 24 7 32 16 11 13 9 15 -16 12
-16 -2 -30 2 -32 10 -3 8 6 12 26 12 31 0 36 6 25 34 -7 19 -55 21 -72 4z m48
-18 c0 -5 -7 -10 -15 -10 -8 0 -15 5 -15 10 0 6 7 10 15 10 8 0 15 -4 15 -10z"/>
<path d="M1550 478 c0 -35 4 -48 12 -46 7 3 13 13 14 24 2 46 5 54 19 54 8 0
15 4 15 9 0 5 -13 9 -30 9 -29 -1 -30 -2 -30 -50z"/>
<path d="M1637 523 c-14 -13 -6 -20 18 -15 35 6 31 -7 -5 -19 -51 -18 -32 -57
28 -56 31 0 32 1 26 36 -3 20 -7 42 -9 49 -5 13 -47 17 -58 5z m43 -52 c0 -12
-20 -25 -27 -18 -7 7 6 27 18 27 5 0 9 -4 9 -9z"/>
<path d="M1811 511 c-16 -29 -14 -46 9 -66 13 -12 27 -15 45 -11 33 8 32 28
-1 24 -15 -2 -29 3 -31 10 -3 8 6 12 27 12 27 0 31 3 28 23 -4 31 -62 37 -77
8z m59 -11 c0 -5 -9 -10 -20 -10 -11 0 -20 5 -20 10 0 6 9 10 20 10 11 0 20
-4 20 -10z"/>
<path d="M2181 511 c-16 -29 -14 -46 9 -66 13 -12 27 -15 45 -11 33 8 32 28
-1 24 -15 -2 -29 3 -31 10 -3 8 6 12 27 12 27 0 31 3 28 23 -4 31 -62 37 -77
8z m59 -11 c0 -5 -9 -10 -20 -10 -11 0 -20 5 -20 10 0 6 9 10 20 10 11 0 20
-4 20 -10z"/>
<path d="M2285 520 c-7 -11 0 -13 28 -11 25 3 21 -17 -5 -21 -15 -2 -24 -11
-26 -25 -4 -25 -4 -25 50 -28 36 -2 36 -2 31 34 -2 20 -6 42 -9 49 -4 14 -60
16 -69 2z m49 -55 c-7 -17 -20 -20 -28 -6 -7 10 3 21 20 21 8 0 11 -6 8 -15z"/>
<path d="M2390 478 c0 -26 5 -48 10 -48 6 0 10 16 10 36 0 27 5 37 20 41 30 8
24 22 -10 21 -29 -1 -30 -3 -30 -50z"/>
<path d="M2462 483 c4 -57 22 -64 26 -10 3 30 7 37 20 35 12 -2 18 -15 20 -41
5 -55 24 -45 20 11 l-3 47 -43 3 -43 3 3 -48z"/>
<path d="M2580 480 c0 -27 5 -50 10 -50 6 0 10 23 10 50 0 28 -4 50 -10 50 -5
0 -10 -22 -10 -50z"/>
<path d="M2630 478 c0 -36 4 -48 13 -45 6 2 11 10 9 18 -6 23 8 59 23 59 9 0
15 -13 17 -37 2 -21 8 -38 13 -38 13 0 19 40 11 71 -6 21 -12 24 -46 22 l-40
-1 0 -49z"/>
<path d="M2890 479 c0 -32 4 -49 11 -47 6 2 10 7 10 11 -1 4 -1 25 -1 47 0 22
-4 40 -10 40 -5 0 -10 -23 -10 -51z"/>
<path d="M2942 483 c4 -57 22 -64 26 -10 3 30 7 37 20 35 12 -2 18 -15 20 -41
5 -55 24 -45 20 11 l-3 47 -43 3 -43 3 3 -48z"/>
<path d="M3232 518 c-7 -7 -12 -22 -12 -34 0 -44 53 -71 79 -41 14 18 2 30
-15 16 -18 -15 -34 -2 -34 28 0 22 3 24 25 19 18 -5 25 -2 25 9 0 18 -50 21
-68 3z"/>
<path d="M3332 483 c3 -48 3 -48 41 -49 l37 -1 0 48 c0 27 -4 49 -10 49 -5 0
-10 -12 -10 -27 0 -16 -4 -34 -9 -42 -14 -22 -31 -3 -31 35 0 19 -5 34 -11 34
-6 0 -9 -19 -7 -47z"/>
<path d="M3522 518 c-28 -28 -3 -88 37 -88 10 0 24 7 32 16 11 13 9 15 -16 12
-16 -2 -30 2 -32 10 -3 8 6 12 26 12 31 0 36 6 25 34 -7 19 -55 21 -72 4z m48
-18 c0 -5 -7 -10 -15 -10 -8 0 -15 5 -15 10 0 6 7 10 15 10 8 0 15 -4 15 -10z"/>
<path d="M3760 526 c0 -2 9 -25 20 -50 19 -46 19 -46 0 -59 -23 -13 -26 -27
-7 -27 24 0 37 17 61 78 18 46 21 62 11 62 -7 0 -19 -15 -25 -32 l-13 -33 -10
33 c-5 17 -16 32 -23 32 -8 0 -14 -2 -14 -4z"/>
<path d="M3880 488 c0 -21 0 -41 -1 -45 0 -4 4 -9 10 -11 5 -2 11 14 13 34 4
51 26 56 30 8 4 -53 28 -57 28 -5 0 55 27 58 32 4 2 -21 8 -38 13 -38 13 0 19
39 11 71 -6 21 -11 23 -71 22 l-65 -1 0 -39z"/>
<path d="M4050 469 c0 -32 0 -62 -1 -66 0 -4 4 -9 10 -11 6 -2 11 7 11 20 0
19 5 24 27 23 21 0 30 6 37 28 14 40 -2 62 -48 64 l-36 1 0 -59z m58 14 c-3
-30 -25 -42 -34 -19 -9 22 2 46 21 46 12 0 15 -8 13 -27z"/>
<path d="M4282 518 c-28 -28 -2 -88 38 -88 30 0 53 42 41 74 -8 20 -17 26 -39
26 -15 0 -33 -5 -40 -12z m53 -38 c0 -36 -29 -33 -33 3 -3 23 0 28 15 25 12
-2 18 -12 18 -28z"/>
<path d="M4565 520 c-7 -11 0 -13 28 -11 25 3 21 -17 -5 -21 -17 -2 -23 -10
-23 -28 0 -23 4 -25 42 -26 46 0 44 -6 28 71 -4 20 -11 25 -35 25 -16 0 -32
-4 -35 -10z m45 -55 c0 -8 -7 -15 -15 -15 -16 0 -20 12 -8 23 11 12 23 8 23
-8z"/>
<path d="M4667 523 c-14 -14 -6 -34 18 -45 14 -6 25 -15 25 -21 0 -5 -11 -6
-25 -3 -27 7 -35 -8 -9 -18 27 -11 43 -7 54 14 9 17 6 23 -22 40 l-33 20 28 0
c15 0 27 5 27 10 0 11 -53 14 -63 3z"/>
<path d="M4832 483 c2 -27 8 -48 13 -48 6 0 11 21 13 48 3 38 0 47 -13 47 -13
0 -16 -9 -13 -47z"/>
<path d="M4892 518 c-18 -18 -15 -53 6 -71 22 -20 46 -22 61 -4 14 18 2 30
-15 16 -18 -15 -34 -2 -34 28 0 22 3 24 25 19 18 -5 25 -2 25 9 0 18 -50 21
-68 3z"/>
<path d="M5142 518 c-22 -22 -15 -67 12 -80 26 -11 56 -5 56 12 0 5 -10 9 -21
7 -12 -1 -24 4 -26 11 -3 8 6 12 26 12 19 0 31 5 31 13 0 19 -21 37 -45 37
-12 0 -26 -5 -33 -12z m48 -18 c0 -5 -7 -10 -15 -10 -8 0 -15 5 -15 10 0 6 7
10 15 10 8 0 15 -4 15 -10z"/>
<path d="M5240 491 c0 -46 15 -61 55 -57 28 3 30 6 33 50 2 35 0 46 -12 46
-10 0 -16 -12 -18 -37 -2 -26 -8 -38 -18 -38 -10 0 -16 12 -18 38 -4 49 -22
48 -22 -2z"/>
<path d="M5462 518 c-20 -20 -15 -66 8 -78 23 -12 60 -5 60 12 0 5 -7 8 -15 4
-18 -6 -45 2 -45 15 0 5 13 9 28 9 36 0 44 8 31 31 -11 21 -49 25 -67 7z m48
-18 c0 -5 -9 -10 -20 -10 -11 0 -20 5 -20 10 0 6 9 10 20 10 11 0 20 -4 20
-10z"/>
<path d="M5560 479 c0 -57 17 -66 22 -11 2 25 8 37 18 37 10 0 16 -12 18 -37
2 -21 7 -38 12 -38 5 0 10 17 12 38 2 25 8 37 18 37 10 0 16 -12 18 -37 5 -56
24 -46 20 10 l-3 47 -67 1 -68 1 0 -48z"/>
<path d="M5730 480 c0 -27 5 -50 10 -50 6 0 10 23 10 50 0 28 -4 50 -10 50 -5
0 -10 -22 -10 -50z"/>
<path d="M5787 523 c-14 -14 -6 -20 19 -15 19 3 25 1 20 -7 -4 -6 -13 -11 -20
-11 -8 0 -19 -7 -26 -15 -19 -23 4 -43 45 -42 35 1 35 2 29 36 -3 20 -7 42 -9
49 -5 13 -47 17 -58 5z m43 -52 c0 -12 -20 -25 -27 -18 -7 7 6 27 18 27 5 0 9
-4 9 -9z"/>
<path d="M1040 500 c0 -5 14 -10 31 -10 17 0 28 4 24 10 -3 6 -17 10 -31 10
-13 0 -24 -4 -24 -10z"/>
<path d="M5880 500 c0 -5 11 -10 25 -10 14 0 25 5 25 10 0 6 -11 10 -25 10
-14 0 -25 -4 -25 -10z"/>
</g>
</svg>
